<?xml version="1.0" encoding="UTF-8" standalone="no"?>
<!-- Created with Inkscape (http://www.inkscape.org/) -->

<svg
   version="1.1"
   id="svg1"
   width="266.66666"
   height="266.66666"
   viewBox="0 0 266.66666 266.66666"
   sodipodi:docname="bee-favicon.svg"
   inkscape:version="1.3.2 (091e20e, 2023-11-25, custom)"
   xmlns:inkscape="http://www.inkscape.org/namespaces/inkscape"
   xmlns:sodipodi="http://sodipodi.sourceforge.net/DTD/sodipodi-0.dtd"
   xmlns="http://www.w3.org/2000/svg"
   xmlns:svg="http://www.w3.org/2000/svg">
  <defs
     id="defs1" />
  <sodipodi:namedview
     id="namedview1"
     pagecolor="#ffffff"
     bordercolor="#111111"
     borderopacity="1"
     inkscape:showpageshadow="0"
     inkscape:pageopacity="0"
     inkscape:pagecheckerboard="1"
     inkscape:deskcolor="#d1d1d1"
     showgrid="false"
     inkscape:zoom="2.9137501"
     inkscape:cx="133.33333"
     inkscape:cy="133.33333"
     inkscape:window-width="1920"
     inkscape:window-height="991"
     inkscape:window-x="-9"
     inkscape:window-y="1491"
     inkscape:window-maximized="1"
     inkscape:current-layer="g1" />
  <g
     inkscape:groupmode="layer"
     inkscape:label="Image"
     id="g1">
    <path
       style="fill:#000000"
       d="m 131.55041,236.26426 c -0.38354,-1.46667 -1.1797,-2.66667 -1.76923,-2.66667 -0.58954,0 -1.46723,-1.8 -1.95043,-4 -0.48321,-2.2 -1.3641,-4 -1.95756,-4 -0.59345,0 -1.47296,-2.1 -1.95447,-4.66667 -0.48151,-2.56666 -1.44829,-4.66666 -2.14839,-4.66666 -0.70011,0 -1.27292,-0.85233 -1.27292,-1.89406 0,-1.04173 -1.8,-2.28941 -4,-2.77261 -2.2,-0.4832 -4,-1.3832 -4,-2 0,-0.6168 -1.74987,-1.50579 -3.88861,-1.97553 -2.13874,-0.46975 -4.21991,-1.71742 -4.62482,-2.77261 -0.40491,-1.05519 -1.60888,-1.91852 -2.67549,-1.91852 -2.097261,0 -10.144411,-7.44865 -10.144411,-9.38993 0,-0.65164 -1.8,-3.02617 -4,-5.27674 -2.2,-2.25057 -4,-4.71411 -4,-5.47454 0,-0.76043 -0.9,-2.2826 -2,-3.3826 -1.1,-1.1 -2,-4.35715 -2,-7.2381 0,-2.88095 -0.6,-5.23809 -1.333337,-5.23809 -0.817778,0 -1.333333,-6.44445 -1.333333,-16.66667 0,-9.16667 0.516425,-16.66667 1.147612,-16.66667 0.631188,0 1.515328,-3.10478 1.964758,-6.89953 0.44943,-3.79474 1.35214,-7.24474 2.00601,-7.66666 0.65388,-0.42193 1.65313,-2.26714 2.22055,-4.10047 0.56743,-1.83333 2.44829,-4.65468 4.17971,-6.26967 1.73141,-1.61498 3.14803,-3.35437 3.14803,-3.86531 0,-1.45436 9.037771,-9.865021 10.600571,-9.865021 1.98121,0 1.74561,-4.99571 -0.26724,-5.66666 -1.1746,-0.39154 -1.666671,-4.229635 -1.666671,-13.000007 0,-8.77037 0.492071,-12.608465 1.666671,-13 0.91667,-0.305555 1.66667,-1.424386 1.66667,-2.486291 0,-1.061904 0.84585,-2.255318 1.87967,-2.652032 1.03382,-0.396713 2.24525,-2.177882 2.69207,-3.958153 0.44682,-1.780271 1.40097,-3.236857 2.12033,-3.236857 2.07736,0 1.51613,-3.634801 -0.69207,-4.482168 -1.1,-0.42211 -2,-1.686303 -2,-2.809318 0,-1.123016 -0.6,-2.041847 -1.33333,-2.041847 -0.73334,0 -1.33334,-0.918831 -1.33334,-2.041846 0,-1.123015 -0.84585,-2.36643 -1.87967,-2.763143 -2.30118,-0.883045 -3.851981,-6.506208 -2.751011,-9.975067 0.801711,-2.525974 7.297351,-3.793489 7.297351,-1.423956 0,0.621126 1.2,2.512932 2.66667,4.204013 1.46666,1.691081 2.66666,3.882886 2.66666,4.870679 0,0.987793 0.6,1.795987 1.33334,1.795987 0.73333,0 1.33333,0.918831 1.33333,2.041847 0,1.123015 0.9,2.387208 2,2.809318 1.1,0.422109 2,1.499363 2,2.393896 0,1.048711 1.42082,1.417893 4,1.039349 2.2,-0.322891 4,-1.118975 4,-1.769076 0,-0.6501 3.6,-1.182001 8,-1.182001 4.4,0 8,0.531901 8,1.182001 0,0.650101 1.8,1.446185 4,1.769076 2.57918,0.378544 4,0.0094 4,-1.039349 0,-0.894533 0.9,-1.971787 2,-2.393896 1.1,-0.42211 2,-1.686303 2,-2.809318 0,-1.123016 0.6,-2.041847 1.33333,-2.041847 0.73333,0 1.33333,-0.808194 1.33333,-1.795987 0,-0.987793 1.2,-3.179598 2.66667,-4.870679 1.46667,-1.691081 2.66667,-3.582887 2.66667,-4.204013 0,-2.369533 6.49563,-1.102018 7.29734,1.423956 1.10097,3.468859 -0.44983,9.092022 -2.75101,9.975067 -1.03381,0.396713 -1.87967,1.640128 -1.87967,2.763143 0,1.123015 -0.6,2.041846 -1.33333,2.041846 -0.73333,0 -1.33333,0.918831 -1.33333,2.041847 0,1.123015 -0.9,2.387208 -2,2.809318 -2.84272,1.090852 -2.48315,3.061945 1.17741,6.45444 1.74758,1.619601 3.62845,4.388403 4.17971,6.152895 0.55126,1.764491 1.67142,3.636281 2.48925,4.159533 2.17042,1.38865 2.00532,25.320295 -0.17971,26.04864 -3.06107,1.02035 -1.71831,4.49103 4,10.33896 7.32275,7.488731 10.33334,11.450731 10.33334,13.598891 0,0.95084 0.53495,1.72881 1.18879,1.72881 0.65383,0 1.6014,1.64399 2.10571,3.65331 0.50431,2.00932 1.48521,4.00453 2.17978,4.4338 0.69458,0.42927 1.63058,3.88528 2.08001,7.68002 0.44943,3.79475 1.33357,6.89953 1.96476,6.89953 0.63119,0 1.14761,6.9 1.14761,15.33334 0,9.33333 -0.52174,15.33333 -1.33333,15.33333 -0.73333,0 -1.34153,1.35 -1.35154,3 -0.0309,5.09038 -1.53855,9 -3.47064,9 -1.01447,0 -1.84449,0.64286 -1.84449,1.42857 0,0.78572 -0.75,2.26489 -1.66666,3.28706 -3.72566,4.15446 -5,5.88501 -5,6.78998 0,1.7729 -12.03356,12.49439 -14.02342,12.49439 -1.08712,0 -1.97658,0.6 -1.97658,1.33333 0,0.73334 -0.91883,1.33334 -2.04185,1.33334 -1.12301,0 -2.36643,0.84585 -2.76314,1.87967 -0.39672,1.03381 -2.1516,2.23865 -3.89975,2.67741 -2.33351,0.58567 -3.41066,2.03545 -4.05192,5.45366 -0.4804,2.56076 -1.359,4.65592 -1.95246,4.65592 -0.59345,0 -1.47435,1.8 -1.95755,4 -0.4832,2.2 -1.36583,4 -1.9614,4 -0.59556,0 -1.49546,1.64399 -1.99977,3.65331 -1.06561,4.24573 -2.8193,5.63122 -7.16365,5.65961 -2.01398,0.0132 -3.37273,-0.92757 -3.82218,-2.64625 z m 6.28033,-15.89095 c 0,-0.67336 0.3642,-2.17336 0.80932,-3.33334 0.61045,-1.5908 -0.0448,-2.10904 -2.66666,-2.10904 -1.9118,0 -3.47599,0.6 -3.47599,1.33333 0,0.73333 0.6,1.33333 1.33333,1.33333 0.73334,0 1.33334,0.9 1.33334,2 0,1.1 0.6,2 1.33333,2 0.73333,0 1.33333,-0.55093 1.33333,-1.22428 z m 9.26771,-17.55287 c 3.70276,-0.7941 6.73229,-1.92906 6.73229,-2.52212 0,-0.59307 1.51555,-1.45868 3.36789,-1.92359 2.84095,-0.71303 8.93302,-6.14319 14.69174,-13.09547 4.22153,-5.09649 4.84185,-5.015 -38.17563,-5.015 -41.606721,0 -41.606721,0 -38.078691,3.26967 1.94041,1.79832 3.53839,3.74832 3.55106,4.33333 0.0341,1.57563 6.118781,7.06367 7.831571,7.06367 0.8133,0 1.47873,0.58856 1.47873,1.30793 0,0.71936 1.5,1.6844 3.33334,2.14454 1.83333,0.46014 3.33333,1.31197 3.33333,1.89295 0,3.32126 20.64248,4.96577 31.93437,2.54409 z m 35.22525,-41.55618 c 0.44218,-1.65 0.81216,-6.75 0.82217,-11.33333 0.0182,-8.33334 0.0182,-8.33334 -49.31513,-8.33334 -49.333331,0 -49.333331,0 -49.333331,8.66667 0,4.88889 0.5812,8.66667 1.33333,8.66667 0.73334,0 1.33334,1.2 1.33334,2.66666 0,2.61643 0.88889,2.66667 47.177821,2.66667 47.17783,0 47.17783,0 47.9818,-3 z m -4.10662,-38.33333 c -0.38355,-1.46667 -1.22737,-2.66667 -1.87518,-2.66667 -0.6478,0 -1.17782,-0.91883 -1.17782,-2.04184 0,-1.12302 -0.84585,-2.36643 -1.87967,-2.76315 -1.03382,-0.39671 -2.24525,-2.17788 -2.69207,-3.95815 -0.44682,-1.78027 -1.31915,-3.23686 -1.93851,-3.23686 -0.61937,0 -2.76467,-1.63855 -4.76735,-3.64123 -3.39045,-3.39046 -3.75873,-3.48053 -5.34738,-1.30794 -0.93838,1.28331 -4.78164,3.06386 -8.54058,3.95677 -3.75894,0.89291 -6.83444,2.08148 -6.83444,2.64127 0,0.55979 -3.6,1.0178 -8,1.0178 -4.4,0 -8,-0.45801 -8,-1.0178 0,-0.55979 -3.12654,-1.76049 -6.94786,-2.66821 -3.82133,-0.90773 -7.46586,-2.57602 -8.09896,-3.70731 -0.72738,-1.29976 -2.11208,-1.75189 -3.76178,-1.2283 -2.91065,0.92381 -9.191401,6.35965 -9.191401,7.95495 0,0.56515 -1.51138,2.42825 -3.35862,4.14021 -1.84725,1.71197 -3.72225,4.93077 -4.16667,7.1529 -0.80805,4.04023 -0.80805,4.04023 43.233801,4.04023 43.3854,0 44.03144,-0.0397 43.34449,-2.66667 z M 48.838961,197.52559 c -2.378813,-0.50665 -5.226919,-1.6696 -6.329125,-2.58435 -3.451897,-2.86482 -6.012426,-14.53622 -6.012426,-27.40584 0,-13.0576 -2.004735,-18.03498 -8.03478,-19.94884 -4.105136,-1.30292 -3.685081,-9.65454 0.566896,-11.27114 5.888933,-2.23897 7.462895,-6.28509 7.526408,-19.34783 0.06034,-12.41073 1.976263,-20.321811 5.997752,-24.765511 2.674478,-2.95526 9.772767,-4.604455 14.601626,-3.39249 2.766518,0.69435 3.342097,1.63814 3.342097,5.48008 0,3.5889 -0.546856,4.64126 -2.411827,4.64126 -5.613354,0 -6.829146,2.738701 -7.694781,17.333331 -0.868288,14.63935 -2.825929,20.39135 -7.893391,23.19257 -1.466666,0.81075 -2.933252,1.64068 -3.259078,1.84429 -0.325827,0.2036 1.577676,2.15896 4.230006,4.34523 5.572024,4.59294 6.450184,7.58251 6.962284,23.70216 0.473464,14.90349 1.255522,17.30927 5.797146,17.83333 3.133541,0.36158 3.602975,1.01128 3.602975,4.98649 0,3.75887 -0.592074,4.7224 -3.333333,5.42458 -1.833334,0.46961 -5.279635,0.43932 -7.658449,-0.0673 z m 161.244629,-4.928 c 0.33187,-4.00987 1.00558,-5.08407 3.40209,-5.42453 5.39649,-0.76666 7.01173,-5.06765 7.01173,-18.67064 0,-13.7401 2.05333,-20.23451 7.53264,-23.82469 3.53689,-2.31746 4.10108,-4.41347 1.18798,-4.41347 -1.07032,0 -3.408,-1.57666 -5.19484,-3.50368 -2.96672,-3.19948 -3.29003,-4.80272 -3.72375,-18.46551 -0.5116,-16.11642 -1.73571,-19.364141 -7.29862,-19.364141 -2.73075,0 -3.17008,-0.64321 -3.17008,-4.64126 0,-3.84194 0.57558,-4.78573 3.3421,-5.48008 5.14742,-1.291925 11.91509,0.49212 15.22268,4.01288 3.8384,4.0858 4.99487,9.438781 5.32964,24.669571 0.14891,6.77483 0.55996,13.07156 0.91345,13.99272 0.35348,0.92116 2.71632,2.66368 5.25075,3.87226 3.73937,1.78319 4.60805,2.94975 4.60805,6.18827 0,2.8069 -1.0091,4.65201 -3.40149,6.21957 -5.39426,3.53445 -7.06413,8.3293 -7.37297,21.17063 -0.5565,23.13898 -3.77719,28.6621 -16.71371,28.6621 -7.33947,0 -7.33947,0 -6.92565,-5 z"
       id="path1" />
    <path
       style="fill:#ffcc00;stroke-width:14.7432"
       d="m 98.326895,125.09704 c -5.931642,-0.43194 -7.030249,-0.93702 -6.658132,-3.06103 0.398257,-2.27321 2.209644,-5.38138 4.789602,-8.21852 1.403246,-1.54312 2.762633,-3.31133 3.020861,-3.92936 1.008014,-2.41252 8.072204,-7.78603 10.235764,-7.78603 0.35159,0 1.30749,0.61595 2.12422,1.36879 1.8361,1.69246 4.08498,2.70452 9.1072,4.09849 3.80414,1.05589 5.83474,1.86579 6.23814,2.48808 0.41537,0.64077 5.05552,1.05136 9.87923,0.87418 4.31639,-0.15854 5.05436,-0.27187 5.91525,-0.90835 1.22402,-0.90496 1.83287,-1.1362 6.92531,-2.63016 4.87653,-1.43062 7.83773,-2.85158 8.87979,-4.26104 0.43363,-0.58652 1.07778,-1.02999 1.49608,-1.02999 0.44174,0 2.01783,1.16745 3.95366,2.92858 1.7705,1.61072 3.57845,3.01878 4.01767,3.12902 0.86524,0.21716 1.40309,1.08133 2.50348,4.02238 0.52342,1.39896 1.14997,2.267 2.37919,3.29616 1.30576,1.09324 1.71807,1.68952 1.89584,2.74173 0.16385,0.96984 0.54678,1.58843 1.37378,2.21921 1.26229,0.96279 2.19782,3.11274 1.61019,3.70037 -0.19395,0.19395 -1.02143,0.50965 -1.83885,0.70156 -1.78673,0.41948 -72.41378,0.65167 -77.848275,0.25593 z"
       id="path2" />
    <path
       style="fill:#ffcc00;stroke-width:14.7432"
       d="m 96.954093,163.86976 c -8.504495,-0.29753 -9.609609,-0.56054 -9.609609,-2.28699 0,-1.03665 -0.561713,-2.17358 -1.409372,-2.85262 -1.412086,-1.13119 -1.821731,-11.4848 -0.531577,-13.4354 0.803467,-1.21478 3.231635,-2.20809 6.574153,-2.68934 9.576712,-1.37884 76.855882,-1.25909 84.715522,0.15078 5.12655,0.91961 6.06938,1.78207 6.32316,5.78418 0.20296,3.20086 -0.50236,12.11214 -1.04892,13.25254 -0.693,1.44591 -2.42562,1.77482 -11.05369,2.09833 -9.11612,0.34181 -64.03156,0.32587 -73.959667,-0.0215 z"
       id="path3" />
    <path
       style="fill:#ffcc00;stroke-width:14.7432"
       d="m 124.07995,203.33531 c -5.17831,-0.716 -8.52103,-1.87041 -8.82929,-3.04921 -0.16903,-0.64638 -1.41366,-1.395 -3.19575,-1.92217 -1.89192,-0.55966 -3.35586,-1.53164 -3.56562,-2.36738 -0.15285,-0.609 -0.56213,-0.95224 -1.41688,-1.18825 -2.41316,-0.66631 -6.84149,-4.62717 -7.836969,-7.00968 -0.271053,-0.64872 -1.522027,-2.27051 -2.779942,-3.60396 -2.244449,-2.37924 -2.272655,-2.43221 -1.511896,-2.83936 1.37887,-0.73794 10.221627,-0.96232 38.389727,-0.97408 34.29892,-0.0143 40.15444,0.2836 40.15444,2.04297 0,0.89985 -3.4715,5.06408 -7.61083,9.12957 -4.49066,4.41055 -6.16597,5.65437 -9.15349,6.79597 -1.43981,0.55018 -2.61352,1.24062 -2.92995,1.72355 -0.58799,0.8974 -3.32513,1.92482 -7.42836,2.78832 -3.01572,0.63464 -18.70874,0.96822 -22.28519,0.47371 z"
       id="path4" />
    <path
       style="fill:#ffcc00;stroke-width:14.7432"
       d="m 135.84179,221.10681 c -0.15271,-0.23595 -0.4321,-1.03193 -0.62086,-1.76884 -0.3307,-1.29104 -0.68257,-1.65775 -1.9734,-2.05663 -1.01511,-0.31368 -0.72104,-1.4708 0.48021,-1.88956 1.48115,-0.51633 3.80395,-0.47333 4.56688,0.0845 0.59984,0.43861 0.60307,0.54295 0.0656,2.12034 -0.31091,0.91246 -0.56529,1.98673 -0.56529,2.38725 0,1.29 -1.34466,2.06307 -1.95314,1.1229 z"
       id="path5" />
  </g>
</svg>
