<svg width="170" height="29" fill="none"
    xmlns="http://www.w3.org/2000/svg">
    <g clip-path="url(#a)" fill-rule="evenodd" clip-rule="evenodd">
        <path d="M169.304 6.628a.7.7 0 0 1 .479.218.7.7 0 0 1 .218.48v18.142a.7.7 0 0 1-.218.48l-2.961 2.965c-.131.13-.261.174-.479.174h-7.62c-.175 0-.349-.043-.479-.174l-2.526-2.486c-.131-.13-.174-.262-.174-.48V24.77a.7.7 0 0 1 .217-.48.7.7 0 0 1 .479-.218h2.744a.7.7 0 0 1 .479.218.7.7 0 0 1 .217.48c0 .174.044.305.175.48l.217.218a.7.7 0 0 0 .479.218h3.963c.131 0 .305-.088.479-.218l.653-.698c.131-.131.174-.262.174-.48V21.5c0-.219-.087-.393-.217-.48a.63.63 0 0 0-.436-.175.7.7 0 0 0-.479.218l-1.001.96c-.131.13-.262.174-.479.174h-4.573a.66.66 0 0 1-.479-.175l-2.351-2.398c-.523-.523-.784-1.134-.784-1.875V7.283a.7.7 0 0 1 .218-.48.7.7 0 0 1 .479-.218h2.743c.174 0 .349.087.479.218a.7.7 0 0 1 .218.48v9.986c0 .175.043.349.174.48l.653.698a.7.7 0 0 0 .479.218h2.134c.174 0 .305-.088.479-.218l2.526-2.66c.13-.132.174-.262.174-.48v-5.19h-.479a.7.7 0 0 1-.479-.218.7.7 0 0 1-.218-.48V7.283a.7.7 0 0 1 .218-.48.7.7 0 0 1 .479-.218h4.006zm-64.185 0a.7.7 0 0 1 .479.218c.13.131.217.306.217.48V9.42a.73.73 0 0 1-.217.524.7.7 0 0 1-.479.218h-.392v11.12a.86.86 0 0 1-.262.61.86.86 0 0 1-.609.262h-2.395a.86.86 0 0 1-.61-.261.86.86 0 0 1-.261-.61V7.5a.86.86 0 0 1 .261-.61.86.86 0 0 1 .61-.263h3.658ZM91.707 4.492c-.174.218-.262.392-.262.61v.741c0 .219.088.437.262.611a.86.86 0 0 0 .61.262h3.047a.79.79 0 0 1 .61.261.86.86 0 0 1 .261.61V9.29a.8.8 0 0 1-.26.61.86.86 0 0 1-.61.262H92.36a.79.79 0 0 0-.61.261.86.86 0 0 0-.261.611v10.335a.86.86 0 0 1-.261.61.86.86 0 0 1-.61.262h-3.701a.7.7 0 0 1-.48-.218.7.7 0 0 1-.217-.48v-2.136a.7.7 0 0 1 .218-.48.7.7 0 0 1 .479-.218h.435v-7.675a.86.86 0 0 0-.261-.61.86.86 0 0 0-.61-.262h-1.045a.79.79 0 0 1-.61-.262.86.86 0 0 1-.26-.61V7.588a.79.79 0 0 1 .26-.61.86.86 0 0 1 .61-.262h1.045a.79.79 0 0 0 .61-.262.86.86 0 0 0 .261-.61V4.011a.79.79 0 0 1 .261-.61L90.226.784c.218-.175.392-.262.61-.262h4.485a.79.79 0 0 1 .61.262.86.86 0 0 1 .26.61v1.658a.8.8 0 0 1-.26.61.86.86 0 0 1-.61.262h-2.743a.86.86 0 0 0-.61.261l-.261.306Zm33.355 5.364c.131.174.218.392.218.566v10.99a.72.72 0 0 1-.218.523.72.72 0 0 1-.522.218h-2.613a.72.72 0 0 1-.523-.218.73.73 0 0 1-.217-.523v-9.856a.72.72 0 0 0-.218-.523l-.61-.654a.83.83 0 0 0-.566-.218h-2.003a.72.72 0 0 0-.522.218l-1.96 2.006c-.522.523-.784 1.134-.784 1.875v7.196a.73.73 0 0 1-.217.523.83.83 0 0 1-.567.218h-2.569c-.217 0-.392-.087-.566-.218a.73.73 0 0 1-.218-.523V10.16h-.391c-.218 0-.392-.087-.479-.218-.131-.131-.175-.306-.175-.524V7.326c0-.174.044-.349.175-.48a.7.7 0 0 1 .479-.218h3.44c.217 0 .392.088.566.218.13.131.217.35.217.567 0 .218.088.393.218.524.174.13.305.218.523.218a.72.72 0 0 0 .522-.218l1.089-1.09a.72.72 0 0 1 .522-.219h4.355c.174 0 .392.088.566.218zm10.364-3.228a.7.7 0 0 1 .479.218.7.7 0 0 1 .218.48V9.42a.72.72 0 0 1-.218.524.7.7 0 0 1-.479.218h-.392v11.12a.86.86 0 0 1-.261.61.86.86 0 0 1-.61.262h-2.395a.86.86 0 0 1-.61-.261.86.86 0 0 1-.261-.61V7.5a.86.86 0 0 1 .261-.61.86.86 0 0 1 .61-.263h3.658Zm6.793 11.993v-7.632a.8.8 0 0 0-.261-.61.86.86 0 0 0-.61-.262h-1.045a.86.86 0 0 1-.61-.261.86.86 0 0 1-.261-.611V7.501a.86.86 0 0 1 .261-.61.86.86 0 0 1 .61-.263h1.132a.8.8 0 0 0 .61-.261.86.86 0 0 0 .261-.61V2.441a.86.86 0 0 1 .261-.61.86.86 0 0 1 .61-.262h2.308c.218 0 .435.087.609.261a.86.86 0 0 1 .262.611v3.314a.79.79 0 0 0 .261.61.86.86 0 0 0 .61.262h2.961a.79.79 0 0 1 .609.262.86.86 0 0 1 .262.61V9.29a.86.86 0 0 1-.262.61.86.86 0 0 1-.609.262h-3.005a.8.8 0 0 0-.61.261.86.86 0 0 0-.261.611v6.28c0 .218.087.392.261.61l.567.524a.79.79 0 0 0 .609.261h2.439c.261 0 .435.087.609.262a.86.86 0 0 1 .262.61v1.745a.86.86 0 0 1-.262.61.86.86 0 0 1-.609.262h-4.398a.86.86 0 0 1-.61-.262l-2.7-2.66c-.174-.218-.261-.392-.261-.654Zm-66.015-6.28v-1.003a.53.53 0 0 0-.174-.392l-.697-.741c-.13-.088-.305-.175-.435-.175h-4.355a.62.62 0 0 0-.435.175l-.697.741c-.087.13-.174.262-.174.392v1.003a.56.56 0 0 0 .174.437.56.56 0 0 0 .435.174h5.748a.56.56 0 0 0 .436-.175c.087-.13.174-.305.174-.436M65.1 18.272v-7.675c0-.436.174-.872.479-1.221l2.22-2.224a1.72 1.72 0 0 1 1.22-.523h7.272c.523 0 .914.174 1.22.523l2.481 2.442c.174.218.262.393.262.61v4.667a.8.8 0 0 1-.262.61.86.86 0 0 1-.61.262H69.76a.56.56 0 0 0-.435.174.56.56 0 0 0-.174.437v1.133c0 .131.043.262.174.393l.653.698c.174.13.305.174.435.174h4.573c.13 0 .26-.044.435-.174l.61-.655c.087-.087.174-.218.174-.348a.56.56 0 0 1 .174-.437.56.56 0 0 1 .436-.174h2.83a.56.56 0 0 1 .435.174.56.56 0 0 1 .175.436v1.178c0 .174-.044.305-.175.393l-2.395 2.442c-.304.348-.74.523-1.219.523h-7.49c-.479 0-.87-.175-1.219-.523l-2.133-2.137q-.523-.525-.523-1.178Zm-9.231-1.09v-3.838c0-.218-.087-.392-.261-.61L53.3 10.423a.86.86 0 0 0-.61-.262h-2.308a.86.86 0 0 0-.61.262l-.696.697c-.13.131-.218.35-.218.61v5.408c0 .262.087.436.218.61l.697.699c.217.174.392.261.61.261H54.3a.79.79 0 0 0 .61-.261l.697-.698c.174-.131.261-.305.261-.567ZM60.398 0a.72.72 0 0 1 .522.218.7.7 0 0 1 .218.48V2.79c0 .218-.087.392-.218.48-.13.13-.305.174-.522.174h-.392V18.49a.86.86 0 0 1-.261.61l-2.83 2.835a.86.86 0 0 1-.61.262h-8.013a.79.79 0 0 1-.61-.262l-2.7-2.747a.8.8 0 0 1-.26-.61v-8.243c0-.261.087-.436.26-.61l2.7-2.748a.86.86 0 0 1 .61-.261h4.964c.218 0 .392.087.61.218l.566.523a.79.79 0 0 0 .61.262c.217 0 .435-.087.61-.218.173-.175.26-.35.26-.654V.872c0-.218.088-.436.262-.61a.86.86 0 0 1 .61-.262zM0 18.621v-8.46c0-.218.087-.392.261-.61l2.613-2.66a.86.86 0 0 1 .61-.262h7.838c.217 0 .392.087.61.261l2.7 2.748c.173.218.26.392.26.61v1.657a.86.86 0 0 1-.26.61.86.86 0 0 1-.61.262h-2.396a.86.86 0 0 1-.61-.261.86.86 0 0 1-.26-.61V11.6c0-.218-.088-.392-.262-.61l-.61-.567c-.13-.175-.348-.262-.609-.262H5.487a.79.79 0 0 0-.61.262l-.522.523a.86.86 0 0 0-.262.61v5.67a.79.79 0 0 0 .262.61l.566.567a.86.86 0 0 0 .61.262h3.788a.79.79 0 0 0 .61-.262l.609-.567c.174-.218.261-.392.261-.61v-.306a.86.86 0 0 1 .261-.61.86.86 0 0 1 .61-.262h2.395c.218 0 .436.087.61.262a.86.86 0 0 1 .261.61v1.657a.8.8 0 0 1-.261.611l-2.7 2.747c-.218.175-.392.262-.61.262H3.484a.79.79 0 0 1-.61-.262l-2.613-2.66C.087 19.057 0 18.883 0 18.621" fill="#fff"/>
        <path d="M31.744 22.764c-.13.13-.305.13-.48.13a1.02 1.02 0 0 1-.74-.304c-.217-.219-.304-.48-.304-.785v-2.443c0-.436.26-.697.566-.915l5.922-4.187-5.922-3.968c-.349-.218-.61-.48-.61-.916V6.977c0-.305.087-.566.305-.785.218-.174.479-.305.74-.305.174 0 .349.044.48.131l8.882 6.062c.349.218.566.523.566.96v2.485c0 .436-.217.697-.566.916l-8.84 6.323Zm-9.317-8.46 5.922 4.186c.348.218.566.48.566.916v2.442c0 .305-.087.567-.305.785-.218.175-.48.305-.74.305a.9.9 0 0 1-.48-.13l-8.883-6.324c-.348-.218-.566-.48-.566-.916v-2.485c0-.436.218-.742.567-.96l8.926-6.105a.9.9 0 0 1 .48-.13c.26 0 .522.086.74.304.217.219.304.48.304.785V9.42c0 .436-.261.697-.61.915z" fill="#FF8A00"/>
        <path d="M100.589 2.006v2.093c0 .262.087.48.305.698s.435.305.697.305h2.656c.261 0 .479-.087.697-.305.087-.087.174-.218.217-.305V1.134c-.043-.131-.13-.218-.217-.306-.218-.218-.436-.305-.697-.305h-2.656c-.262 0-.479.087-.697.305-.218.219-.305.437-.305.698zm30.308 0v2.093c0 .262.087.48.305.698.217.218.435.305.696.305h2.657c.261 0 .479-.087.696-.305.087-.087.175-.218.218-.305V1.134c-.043-.131-.131-.218-.218-.306-.217-.218-.435-.305-.696-.305h-2.657c-.261 0-.479.087-.696.305-.218.219-.305.437-.305.698z" fill="#fff"/>
    </g>
    <defs>
        <clipPath id="a">
            <path fill="#fff" d="M0 0h170v29H0z"/>
        </clipPath>
    </defs>
</svg>